<svg width="30" height="30" viewBox="0 0 30 30" fill="none" xmlns="http://www.w3.org/2000/svg">
    <path
        d="M0 15C0 12.7407 1.83156 10.9091 4.09091 10.9091H25.9091C28.1684 10.9091 30 12.7407 30 15C30 17.2593 28.1684 19.0909 25.9091 19.0909H4.09091C1.83156 19.0909 0 17.2593 0 15Z"
        fill="white" />
    <path
        d="M15 0C17.2593 9.87592e-08 19.0909 1.83156 19.0909 4.09091L19.0909 25.9091C19.0909 28.1684 17.2593 30 15 30C12.7407 30 10.9091 28.1684 10.9091 25.9091L10.9091 4.09091C10.9091 1.83156 12.7407 -9.87592e-08 15 0Z"
        fill="white" />
</svg>
