<svg width="30" height="30" viewBox="0 0 30 30" fill="none" xmlns="http://www.w3.org/2000/svg">
    <path
        d="M0.397577 7.01747L14.2136 14.5255C14.3334 14.5893 14.467 14.6228 14.6028 14.6228C14.7385 14.6228 14.8722 14.5893 14.9919 14.5255L28.8079 7.01747C28.934 6.95522 29.0389 6.85712 29.1094 6.73548C29.1798 6.61384 29.2128 6.47408 29.2042 6.33376C29.1955 6.19344 29.1456 6.05881 29.0607 5.94676C28.9758 5.83471 28.8596 5.75025 28.7269 5.70398L14.9109 0.0608208C14.7135 -0.0202736 14.4921 -0.0202736 14.2947 0.0608208L0.478657 5.70398C0.345902 5.75025 0.229776 5.83471 0.144859 5.94676C0.0599414 6.05881 0.0100176 6.19344 0.0013558 6.33376C-0.00730604 6.47408 0.0256799 6.61384 0.0961721 6.73548C0.166664 6.85712 0.271521 6.95522 0.397577 7.01747Z"
        fill="#FF660E" />
    <path
        d="M28.7268 12.4824L25.7593 11.2175L14.9919 17.0715C14.8721 17.1354 14.7385 17.1688 14.6027 17.1688C14.467 17.1688 14.3333 17.1354 14.2135 17.0715L3.44612 11.2175L0.478595 12.4824C0.352919 12.5483 0.247675 12.6474 0.174249 12.7689C0.100824 12.8904 0.0620117 13.0296 0.0620117 13.1716C0.0620117 13.3135 0.100824 13.4527 0.174249 13.5742C0.247675 13.6957 0.352919 13.7948 0.478595 13.8607L14.2946 21.8066C14.4118 21.8782 14.5464 21.9161 14.6838 21.9161C14.8211 21.9161 14.9558 21.8782 15.073 21.8066L28.889 13.8607C29.0086 13.7811 29.1038 13.6699 29.1642 13.5395C29.2245 13.4091 29.2475 13.2645 29.2308 13.1218C29.214 12.9791 29.158 12.8438 29.0691 12.7309C28.9801 12.6181 28.8616 12.5321 28.7268 12.4824Z"
        fill="#FF660E" />
    <path
        d="M28.7268 19.6823L26.1971 18.5796L14.9919 24.6768C14.8721 24.7407 14.7385 24.7741 14.6027 24.7741C14.467 24.7741 14.3333 24.7407 14.2136 24.6768L3.00832 18.5796L0.478628 19.6823C0.349389 19.7493 0.241045 19.8505 0.165422 19.9749C0.089799 20.0993 0.0498047 20.2421 0.0498047 20.3877C0.0498047 20.5332 0.089799 20.676 0.165422 20.8004C0.241045 20.9248 0.349389 21.0261 0.478628 21.0931L14.2946 29.201C14.4144 29.2649 14.5481 29.2983 14.6838 29.2983C14.8196 29.2983 14.9532 29.2649 15.073 29.201L28.889 21.0931C29.0122 21.0123 29.1106 20.8989 29.1731 20.7656C29.2356 20.6322 29.2598 20.484 29.243 20.3377C29.2262 20.1913 29.169 20.0525 29.0778 19.9368C28.9867 19.8211 28.8652 19.7329 28.7268 19.6823Z"
        fill="#FF660E" />
</svg>
