<svg width="23" height="24" viewBox="0 0 23 24" fill="none" xmlns="http://www.w3.org/2000/svg">
    <path
        d="M17.6746 23.8977C12.9889 23.8917 8.49682 22.0239 5.18349 18.704C1.87017 15.3841 0.00607356 10.883 0 6.188C0 4.78503 0.556225 3.43952 1.54631 2.44746C2.5364 1.45541 3.87925 0.898081 5.27944 0.898081C5.57594 0.895818 5.87194 0.92278 6.16317 0.978579C6.44472 1.02032 6.72149 1.08966 6.98952 1.18558C7.17803 1.25185 7.34601 1.36628 7.47685 1.51754C7.60768 1.66881 7.69685 1.85168 7.73553 2.04806L9.30788 8.94796C9.35026 9.13525 9.34516 9.33019 9.29304 9.515C9.24091 9.69981 9.14343 9.86859 9.00948 10.0059C8.86028 10.1669 8.8488 10.1784 7.43712 10.9144C8.56761 13.3994 10.5511 15.395 13.0264 16.5379C13.7725 15.1119 13.7839 15.1004 13.9446 14.9509C14.0817 14.8167 14.2501 14.719 14.4346 14.6668C14.619 14.6145 14.8136 14.6094 15.0005 14.6519L21.8867 16.2274C22.0764 16.2715 22.2518 16.3632 22.3964 16.494C22.541 16.6248 22.6499 16.7902 22.7131 16.9748C22.8099 17.2478 22.8829 17.5287 22.9311 17.8143C22.9773 18.1034 23.0004 18.3956 23 18.6883C22.9788 20.0853 22.407 21.4172 21.4092 22.3932C20.4115 23.3692 19.069 23.9101 17.6746 23.8977Z"
        fill="#FF660E" />
</svg>
