<svg width="60" height="60" viewBox="0 0 60 60" fill="none" xmlns="http://www.w3.org/2000/svg">
    <path
        d="M47.1429 0H12.8571C5.75634 0 0 5.75634 0 12.8571V47.1429C0 54.2437 5.75634 60 12.8571 60H47.1429C54.2437 60 60 54.2437 60 47.1429V12.8571C60 5.75634 54.2437 0 47.1429 0Z"
        fill="url(#paint0_radial_126_699)" />
    <path
        d="M47.1429 0H12.8571C5.75634 0 0 5.75634 0 12.8571V47.1429C0 54.2437 5.75634 60 12.8571 60H47.1429C54.2437 60 60 54.2437 60 47.1429V12.8571C60 5.75634 54.2437 0 47.1429 0Z"
        fill="url(#paint1_radial_126_699)" />
    <path
        d="M47.1429 0H12.8571C5.75634 0 0 5.75634 0 12.8571V47.1429C0 54.2437 5.75634 60 12.8571 60H47.1429C54.2437 60 60 54.2437 60 47.1429V12.8571C60 5.75634 54.2437 0 47.1429 0Z"
        fill="url(#paint2_radial_126_699)" />
    <path
        d="M45 18.2143C45 19.9894 43.5608 21.4286 41.7857 21.4286C40.0106 21.4286 38.5714 19.9894 38.5714 18.2143C38.5714 16.4391 40.0106 15 41.7857 15C43.5608 15 45 16.4391 45 18.2143Z"
        fill="white" />
    <path fill-rule="evenodd" clip-rule="evenodd"
        d="M30.0001 40.7142C35.9173 40.7142 40.7143 35.9172 40.7143 29.9999C40.7143 24.0826 35.9173 19.2856 30.0001 19.2856C24.0828 19.2856 19.2858 24.0826 19.2858 29.9999C19.2858 35.9172 24.0828 40.7142 30.0001 40.7142ZM30.0001 36.4285C33.5506 36.4285 36.4286 33.5504 36.4286 29.9999C36.4286 26.4494 33.5506 23.5714 30.0001 23.5714C26.4496 23.5714 23.5715 26.4494 23.5715 29.9999C23.5715 33.5504 26.4496 36.4285 30.0001 36.4285Z"
        fill="white" />
    <path fill-rule="evenodd" clip-rule="evenodd"
        d="M8.57141 29.1427C8.57141 21.9421 8.57141 18.3416 9.97275 15.5914C11.2054 13.1722 13.1723 11.2053 15.5915 9.97263C18.3418 8.57129 21.9422 8.57129 29.1428 8.57129H30.8571C38.0578 8.57129 41.6582 8.57129 44.4083 9.97263C46.8276 11.2053 48.7946 13.1722 50.0271 15.5914C51.4286 18.3416 51.4286 21.9421 51.4286 29.1427V30.857C51.4286 38.0576 51.4286 41.6581 50.0271 44.4082C48.7946 46.8275 46.8276 48.7944 44.4083 50.027C41.6582 51.4284 38.0578 51.4284 30.8571 51.4284H29.1428C21.9422 51.4284 18.3418 51.4284 15.5915 50.027C13.1723 48.7944 11.2054 46.8275 9.97275 44.4082C8.57141 41.6581 8.57141 38.0576 8.57141 30.857V29.1427ZM29.1428 12.857H30.8571C34.5283 12.857 37.0236 12.8603 38.9526 13.0179C40.8317 13.1714 41.7926 13.4497 42.4628 13.7912C44.0756 14.613 45.3868 15.9243 46.2085 17.537C46.5501 18.2073 46.8285 19.1681 46.9819 21.0472C47.1394 22.9762 47.1428 25.4716 47.1428 29.1427V30.857C47.1428 34.5281 47.1394 37.0235 46.9819 38.9525C46.8285 40.8316 46.5501 41.7924 46.2085 42.4627C45.3868 44.0754 44.0756 45.3866 42.4628 46.2084C41.7926 46.55 40.8317 46.8284 38.9526 46.9818C37.0236 47.1393 34.5283 47.1427 30.8571 47.1427H29.1428C25.4717 47.1427 22.9763 47.1393 21.0473 46.9818C19.1683 46.8284 18.2074 46.55 17.5371 46.2084C15.9244 45.3866 14.6131 44.0754 13.7913 42.4627C13.4498 41.7924 13.1716 40.8316 13.0181 38.9525C12.8605 37.0235 12.8571 34.5281 12.8571 30.857V29.1427C12.8571 25.4716 12.8605 22.9762 13.0181 21.0472C13.1716 19.1681 13.4498 18.2073 13.7913 17.537C14.6131 15.9243 15.9244 14.613 17.5371 13.7912C18.2074 13.4497 19.1683 13.1714 21.0473 13.0179C22.9763 12.8603 25.4717 12.857 29.1428 12.857Z"
        fill="white" />
    <defs>
        <radialGradient id="paint0_radial_126_699" cx="0" cy="0" r="1"
            gradientUnits="userSpaceOnUse"
            gradientTransform="translate(21.4286 45) rotate(-55.3758) scale(54.6849)">
            <stop stop-color="#B13589" />
            <stop offset="0.79309" stop-color="#C62F94" />
            <stop offset="1" stop-color="#8A3AC8" />
        </radialGradient>
        <radialGradient id="paint1_radial_126_699" cx="0" cy="0" r="1"
            gradientUnits="userSpaceOnUse"
            gradientTransform="translate(19.2857 62.1429) rotate(-65.1363) scale(48.4161)">
            <stop stop-color="#E0E8B7" />
            <stop offset="0.444662" stop-color="#FB8A2E" />
            <stop offset="0.71474" stop-color="#E2425C" />
            <stop offset="1" stop-color="#E2425C" stop-opacity="0" />
        </radialGradient>
        <radialGradient id="paint2_radial_126_699" cx="0" cy="0" r="1"
            gradientUnits="userSpaceOnUse"
            gradientTransform="translate(-3.21428 2.14286) rotate(-8.1301) scale(83.3376 17.8251)">
            <stop offset="0.156701" stop-color="#406ADC" />
            <stop offset="0.467799" stop-color="#6A45BE" />
            <stop offset="1" stop-color="#6A45BE" stop-opacity="0" />
        </radialGradient>
    </defs>
</svg>
