<svg width="40" height="40" viewBox="0 0 40 40" fill="none" xmlns="http://www.w3.org/2000/svg">
    <path
        d="M11.014 29.6325C12.785 31.176 14.5887 33.1167 15.5327 34.289C16.6822 35.8129 17.1588 36.8419 18.014 38.6849C18.514 39.6944 18.9906 40.0005 19.9906 40.0005C21.0841 40.0005 21.5841 39.486 21.9673 38.6849C22.7663 36.9559 23.3831 35.6403 24.3598 34.3867C28.1261 29.4371 34.2663 25.9204 37.7243 21.1011C37.7243 21.1011 40 18.1574 40 14.035C40 10.1926 37.757 7.52246 37.757 7.52246L11.028 29.6651L11.014 29.6325Z"
        fill="#34A853" />
    <path
        d="M1.9486 20.5791C4.10281 23.9982 8.21029 26.994 11.014 29.6315L25.8739 17.3554C25.8739 17.3554 23.7757 19.2701 19.986 19.2701C15.7617 19.2701 12.3224 16.9256 12.3224 13.9624C12.3224 11.924 14.0654 10.5107 14.0654 10.5107C3.13085 11.6439 3.73832 13.4902 1.91589 20.5726L1.9486 20.5791Z"
        fill="#FBBC04" />
    <path
        d="M26.0608 0.641602C31.0141 1.75199 35.2197 4.09324 37.743 7.51232L25.8739 17.3788C25.8739 17.3788 27.6169 15.9591 27.6169 13.9272C27.6169 10.9021 23.9533 8.61945 20 8.61945C16.2477 8.61945 14.1122 10.5113 14.1122 10.5113C15.0234 9.06556 24.4393 1.1333 26.0748 0.644858L26.0608 0.641602Z"
        fill="#4285F4" />
    <path
        d="M4.65887 4.98209C7.61215 2.53338 12.7897 0 19.9393 0C23.3925 0 26.014 0.638228 26.014 0.638228L14.0981 10.5047C13.2944 10.2009 5.45327 5.94594 4.65887 4.96906V4.98209Z"
        fill="#1A73E8" />
    <path
        d="M1.9486 20.5796C1.9486 20.5796 0 17.8834 0 14.0019C0 10.3224 2.06542 7.09866 4.6729 5.01465L14.1122 10.5503L1.96262 20.5796H1.9486Z"
        fill="#EA4335" />
</svg>
