<svg width="92" height="131" viewBox="0 0 92 131" fill="none" xmlns="http://www.w3.org/2000/svg">
    <path
        d="M25.8268 96.9067C29.8628 101.954 33.9734 108.301 36.1245 112.135C38.7441 117.119 39.8303 120.484 41.7791 126.511C42.9186 129.812 44.0048 130.813 46.2837 130.813C48.7756 130.813 49.915 129.131 50.7882 126.511C52.6092 120.856 54.0149 116.554 56.2405 112.454C64.8237 96.2678 78.8165 84.7668 86.6968 69.0062C86.6968 69.0062 91.8829 59.3794 91.8829 45.8977C91.8829 33.3318 86.7714 24.5996 86.7714 24.5996L25.8588 97.0132L25.8268 96.9067Z"
        fill="#34A853" />
    <path
        d="M5.16775 67.3019C10.077 78.4834 19.4375 88.2805 25.8269 96.9063L59.6909 56.7593C59.6909 56.7593 54.9095 63.021 46.2731 63.021C36.6464 63.021 28.8086 55.3536 28.8086 45.663C28.8086 38.9967 32.7807 34.375 32.7807 34.375C7.86196 38.0809 9.24633 44.1189 5.0932 67.2806L5.16775 67.3019Z"
        fill="#FBBC04" />
    <path
        d="M60.1169 2.09814C71.4049 5.72947 80.9891 13.3861 86.7395 24.5677L59.6909 56.8343C59.6909 56.8343 63.663 52.1913 63.663 45.5463C63.663 35.6533 55.3142 28.1883 46.3051 28.1883C37.7539 28.1883 32.8873 34.3754 32.8873 34.3754C34.9638 29.6473 56.4217 3.70615 60.1489 2.10879L60.1169 2.09814Z"
        fill="#4285F4" />
    <path
        d="M11.3442 16.2931C18.0744 8.28496 29.8736 0 46.1666 0C54.0363 0 60.0104 2.08721 60.0104 2.08721L32.8553 34.3539C31.0237 33.3603 13.1546 19.4452 11.3442 16.2505V16.2931Z"
        fill="#1A73E8" />
    <path
        d="M5.16777 67.3019C5.16777 67.3019 0.727112 58.4845 0.727112 45.7908C0.727112 33.7574 5.43399 23.2148 11.3762 16.3994L32.8873 34.5028L5.19972 67.3019H5.16777Z"
        fill="#EA4335" />
</svg>
