<svg width="30" height="30" viewBox="0 0 30 30" fill="none" xmlns="http://www.w3.org/2000/svg">
    <path
        d="M18.6639 7.13955e-07C16.8003 -2.65419e-05 15.2979 -5.37328e-05 14.1165 0.158793C12.8899 0.323718 11.857 0.676531 11.0367 1.49682C10.3213 2.21219 9.95985 3.0913 9.77011 4.12428C9.58574 5.12806 9.55047 6.35647 9.54225 7.83036C9.53912 8.39483 9.99417 8.85498 10.5586 8.85813C11.1231 8.86127 11.5833 8.40621 11.5864 7.84174C11.5947 6.35153 11.6334 5.29526 11.7807 4.4936C11.9225 3.72116 12.1504 3.27405 12.4821 2.94228C12.8593 2.56511 13.3889 2.3192 14.3888 2.18476C15.4183 2.04635 16.7825 2.04419 18.7387 2.04419H20.1015C22.0576 2.04419 23.4219 2.04635 24.4514 2.18476C25.4514 2.3192 25.9808 2.56511 26.3581 2.94228C26.7353 3.31945 26.9811 3.849 27.1156 4.84897C27.254 5.87836 27.2561 7.24267 27.2561 9.19884V20.1012C27.2561 22.0573 27.254 23.4216 27.1156 24.4511C26.9811 25.4511 26.7353 25.9805 26.3581 26.3577C25.9808 26.735 25.4514 26.9808 24.4514 27.1153C23.4219 27.2536 22.0576 27.2558 20.1015 27.2558H18.7387C16.7825 27.2558 15.4183 27.2536 14.3888 27.1153C13.3889 26.9808 12.8593 26.735 12.4821 26.3577C12.1504 26.0259 11.9225 25.5789 11.7807 24.8065C11.6334 24.0047 11.5947 22.9484 11.5864 21.4582C11.5833 20.8938 11.1231 20.4387 10.5586 20.4419C9.99417 20.445 9.53912 20.9052 9.54225 21.4697C9.55047 22.9435 9.58574 24.172 9.77011 25.1757C9.95985 26.2086 10.3213 27.0878 11.0367 27.8032C11.857 28.6235 12.8899 28.9763 14.1165 29.1412C15.2979 29.3 16.8003 29.3 18.6639 29.3H20.1763C22.0401 29.3 23.5423 29.3 24.7238 29.1412C25.9504 28.9763 26.9832 28.6235 27.8036 27.8032C28.6238 26.9828 28.9767 25.9501 29.1416 24.7235C29.3005 23.5419 29.3003 22.0397 29.3003 20.176V9.12406C29.3003 7.26032 29.3005 5.75809 29.1416 4.57659C28.9767 3.34993 28.6238 2.31711 27.8036 1.49682C26.9832 0.676531 25.9504 0.323718 24.7238 0.158793C23.5423 -5.37328e-05 22.0401 -2.65419e-05 20.1763 7.13955e-07H18.6639Z"
        fill="#FF660E" />
    <path
        d="M18.7384 13.6279C19.3028 13.6279 19.7605 14.0856 19.7605 14.65C19.7605 15.2145 19.3028 15.6721 18.7384 15.6721H3.78507L6.45702 17.9624C6.88562 18.3297 6.93525 18.975 6.56789 19.4036C6.20053 19.8322 5.55528 19.8818 5.1267 19.5144L0.356928 15.426C0.130378 15.2319 0 14.9483 0 14.65C0 14.3517 0.130378 14.0681 0.356928 13.8741L5.1267 9.78564C5.55528 9.41827 6.20053 9.4679 6.56789 9.8965C6.93525 10.3251 6.88562 10.9703 6.45702 11.3377L3.78507 13.6279H18.7384Z"
        fill="#FF660E" />
</svg>
