<svg width="176" height="131" viewBox="0 0 176 131" fill="none" xmlns="http://www.w3.org/2000/svg">
    <path
        d="M12.5972 130.815H40.3385V63.4431L0.708008 33.7202V118.926C0.708008 125.505 6.03831 130.815 12.5972 130.815Z"
        fill="#4285F4" />
    <path
        d="M135.452 130.815H163.194C169.772 130.815 175.083 125.485 175.083 118.926V33.7202L135.452 63.4431"
        fill="#34A853" />
    <path
        d="M135.452 11.9229V63.4426L175.083 33.7197V17.8675C175.083 3.16454 158.299 -5.21732 146.549 3.60047"
        fill="#FBBC04" />
    <path d="M40.3389 63.443V11.9233L87.8955 47.5908L135.452 11.9233V63.443L87.8955 99.1105"
        fill="#EA4335" />
    <path
        d="M0.708008 17.8675V33.7197L40.3385 63.4426V11.9229L29.242 3.60047C17.4717 -5.21732 0.708008 3.16454 0.708008 17.8675Z"
        fill="#C5221F" />
</svg>
