<svg width="16" height="19" viewBox="0 0 16 19" fill="none" xmlns="http://www.w3.org/2000/svg">
    <path
        d="M8.28293 8.41841C9.05782 8.41841 9.68599 7.79024 9.68599 7.01536C9.68599 6.24047 9.05782 5.6123 8.28293 5.6123C7.50805 5.6123 6.87988 6.24047 6.87988 7.01536C6.87988 7.79024 7.50805 8.41841 8.28293 8.41841Z"
        fill="#FF660E" />
    <path
        d="M8.28299 9.36737e-09C6.31129 -9.85782e-05 4.41922 0.778 3.01803 2.16518C1.61684 3.55236 0.819766 5.43651 0.800049 7.40811C0.800049 12.5339 7.39439 18.2397 7.675 18.4829C7.84443 18.6278 8.06004 18.7074 8.28299 18.7074C8.50594 18.7074 8.72155 18.6278 8.89098 18.4829C9.21836 18.2397 15.7659 12.5339 15.7659 7.40811C15.7462 5.43651 14.9491 3.55236 13.5479 2.16518C12.1468 0.778 10.2547 -9.85782e-05 8.28299 9.36737e-09ZM8.28299 10.289C7.6355 10.289 7.00254 10.097 6.46417 9.73731C5.9258 9.37758 5.50619 8.86629 5.2584 8.26808C5.01062 7.66987 4.94579 7.01162 5.07211 6.37657C5.19843 5.74152 5.51023 5.15819 5.96807 4.70034C6.42592 4.24249 7.00925 3.9307 7.6443 3.80438C8.27936 3.67806 8.93761 3.74289 9.53581 3.99067C10.134 4.23846 10.6453 4.65807 11.005 5.19644C11.3648 5.73481 11.5568 6.36776 11.5568 7.01526C11.5568 7.88352 11.2119 8.71622 10.5979 9.33017C9.98395 9.94413 9.15125 10.289 8.28299 10.289Z"
        fill="#FF660E" />
</svg>
