<svg width="17" height="17" viewBox="0 0 17 17" fill="none" xmlns="http://www.w3.org/2000/svg">
    <path
        d="M8.46628 16.061C8.35661 16.0617 8.24789 16.039 8.14636 15.9943C8.04483 15.9496 7.95248 15.8838 7.87462 15.8006L1.39962 8.81367C0.587418 7.92924 0.131836 6.73518 0.131836 5.49085C0.131836 4.24653 0.587418 3.05247 1.39962 2.16804C2.21817 1.2884 3.32698 0.794434 4.48295 0.794434C5.63892 0.794434 6.74773 1.2884 7.56628 2.16804L8.46628 3.13794L9.36628 2.16804C10.1848 1.2884 11.2936 0.794434 12.4496 0.794434C13.6056 0.794434 14.7144 1.2884 15.533 2.16804C16.3451 3.05247 16.8007 4.24653 16.8007 5.49085C16.8007 6.73518 16.3451 7.92924 15.533 8.81367L9.05795 15.8006C8.98008 15.8838 8.88774 15.9496 8.78621 15.9943C8.68468 16.039 8.57596 16.0617 8.46628 16.061ZM4.48295 2.59013C4.13018 2.58841 3.7806 2.66213 3.45446 2.80704C3.12831 2.95195 2.83209 3.16515 2.58295 3.4343C2.07967 3.97953 1.79715 4.71731 1.79715 5.48637C1.79715 6.25542 2.07967 6.9932 2.58295 7.53843L8.46628 13.8877L14.3496 7.53843C14.8529 6.9932 15.1354 6.25542 15.1354 5.48637C15.1354 4.71731 14.8529 3.97953 14.3496 3.4343C13.836 2.91137 13.1562 2.62003 12.4496 2.62003C11.743 2.62003 11.0632 2.91137 10.5496 3.4343L9.05795 5.05081C8.98048 5.13498 8.88831 5.20179 8.78676 5.24738C8.68521 5.29298 8.57629 5.31645 8.46628 5.31645C8.35627 5.31645 8.24735 5.29298 8.1458 5.24738C8.04425 5.20179 7.95209 5.13498 7.87462 5.05081L6.38295 3.4343C6.13381 3.16515 5.83759 2.95195 5.51144 2.80704C5.1853 2.66213 4.83572 2.58841 4.48295 2.59013Z"
        fill="#FF660E" />
    <path
        d="M4.48295 2.59013C4.13018 2.58841 3.7806 2.66213 3.45446 2.80704C3.12831 2.95195 2.83209 3.16515 2.58295 3.4343C2.07967 3.97953 1.79715 4.71731 1.79715 5.48637C1.79715 6.25542 2.07967 6.9932 2.58295 7.53843L8.46628 13.8877L14.3496 7.53843C14.8529 6.9932 15.1354 6.25542 15.1354 5.48637C15.1354 4.71731 14.8529 3.97953 14.3496 3.4343C13.836 2.91137 13.1562 2.62003 12.4496 2.62003C11.743 2.62003 11.0632 2.91137 10.5496 3.4343L9.05795 5.05081C8.98048 5.13498 8.88831 5.20179 8.78676 5.24738C8.68521 5.29298 8.57629 5.31645 8.46628 5.31645C8.35627 5.31645 8.24735 5.29298 8.1458 5.24738C8.04425 5.20179 7.95209 5.13498 7.87462 5.05081L6.38295 3.4343C6.13381 3.16515 5.83759 2.95195 5.51144 2.80704C5.1853 2.66213 4.83572 2.58841 4.48295 2.59013Z"
        fill="#FF660E" />
</svg>
