<svg width="30" height="30" viewBox="0 0 30 30" fill="none" xmlns="http://www.w3.org/2000/svg">
    <path
        d="M16.0271 29.5983H13.2582C12.6055 29.5983 11.9795 29.339 11.5179 28.8775C11.0564 28.4159 10.797 27.7899 10.797 27.1371V25.5403C10.7891 25.4462 10.7546 25.3563 10.6975 25.2811C10.6405 25.2059 10.5632 25.1484 10.4747 25.1154C10.3851 25.058 10.2809 25.0275 10.1744 25.0275C10.068 25.0275 9.96374 25.058 9.8741 25.1154L8.79 26.2874C8.5626 26.5164 8.29213 26.6982 7.99419 26.8222C7.69624 26.9462 7.3767 27.0101 7.05397 27.0101C6.73125 27.0101 6.41171 26.9462 6.11376 26.8222C5.81581 26.6982 5.54535 26.5164 5.31795 26.2874L3.3109 24.3243C3.07858 24.0974 2.89407 23.8262 2.76826 23.5268C2.64246 23.2274 2.5779 22.9058 2.5784 22.581C2.57934 21.9166 2.8426 21.2796 3.3109 20.8083L4.395 19.7242C4.44734 19.6435 4.47519 19.5494 4.47519 19.4532C4.47519 19.357 4.44734 19.2629 4.395 19.1822C4.3071 18.9624 4.1606 18.8013 3.9555 18.8013H2.4612C1.80711 18.7974 1.18112 18.5349 0.719972 18.071C0.258824 17.6071 -1.14508e-05 16.9795 3.7994e-10 16.3254V13.5566C3.79939e-10 12.9038 0.259304 12.2778 0.720869 11.8163C1.18243 11.3547 1.80845 11.0954 2.4612 11.0954H4.05805C4.15213 11.0875 4.24202 11.0529 4.31724 10.9959C4.39246 10.9388 4.44991 10.8616 4.4829 10.7731C4.54033 10.6834 4.57086 10.5792 4.57086 10.4728C4.57086 10.3663 4.54033 10.2621 4.4829 10.1724L3.3109 9.08834C3.0819 8.86094 2.90015 8.59047 2.77612 8.29253C2.6521 7.99458 2.58825 7.67504 2.58825 7.35231C2.58825 7.02959 2.6521 6.71005 2.77612 6.4121C2.90015 6.11415 3.0819 5.84369 3.3109 5.61629L5.274 3.60924C5.49873 3.37802 5.76744 3.1941 6.06433 3.0683C6.36121 2.9425 6.68026 2.87737 7.0027 2.87674C7.33415 2.87528 7.66263 2.93924 7.96932 3.06493C8.27602 3.19063 8.5549 3.37559 8.79 3.60924L9.8741 4.69334C9.9548 4.74568 10.0489 4.77353 10.1451 4.77353C10.2413 4.77353 10.3354 4.74568 10.4161 4.69334C10.6359 4.60544 10.797 4.45894 10.797 4.25384V2.75954C10.8009 2.10545 11.0635 1.47946 11.5274 1.01831C11.9913 0.557164 12.6188 0.298328 13.2729 0.29834H16.115C16.7677 0.29834 17.3938 0.557644 17.8553 1.01921C18.3169 1.48077 18.5762 2.10679 18.5762 2.75954V4.35639C18.5841 4.45047 18.6186 4.54036 18.6757 4.61558C18.7328 4.6908 18.81 4.74825 18.8985 4.78124C18.9881 4.83867 19.0924 4.8692 19.1988 4.8692C19.3053 4.8692 19.4095 4.83867 19.4991 4.78124L20.51 3.60924C20.7374 3.38024 21.0079 3.19849 21.3058 3.07446C21.6038 2.95044 21.9233 2.88659 22.246 2.88659C22.5688 2.88659 22.8883 2.95044 23.1862 3.07446C23.4842 3.19849 23.7546 3.38024 23.982 3.60924L25.9891 5.57234C26.2208 5.79979 26.4048 6.07108 26.5306 6.37038C26.6563 6.66969 26.7213 6.99103 26.7216 7.31569C26.7287 7.64574 26.6672 7.97368 26.5411 8.27879C26.4151 8.5839 26.2271 8.85955 25.9891 9.08834L24.905 10.1724C24.8527 10.2531 24.8248 10.3473 24.8248 10.4435C24.8248 10.5397 24.8527 10.6338 24.905 10.7145C24.9929 10.9342 25.1394 11.0954 25.3445 11.0954H26.9413C27.5775 11.1255 28.1775 11.3996 28.6168 11.8607C29.056 12.3218 29.3007 12.9344 29.3 13.5712V16.4133C29.3 17.0661 29.0407 17.6921 28.5791 18.1537C28.1176 18.6152 27.4915 18.8745 26.8388 18.8745H25.2419C25.1479 18.8825 25.058 18.917 24.9828 18.974C24.9075 19.0311 24.8501 19.1084 24.8171 19.1968C24.7648 19.2775 24.7369 19.3717 24.7369 19.4679C24.7369 19.5641 24.7648 19.6582 24.8171 19.7389L25.9451 20.8669C26.1741 21.0943 26.3559 21.3648 26.4799 21.6627C26.6039 21.9607 26.6678 22.2802 26.6678 22.603C26.6678 22.9257 26.6039 23.2452 26.4799 23.5432C26.3559 23.8411 26.1741 24.1116 25.9451 24.339L24.026 26.2874C23.8013 26.5187 23.5326 26.7026 23.2357 26.8284C22.9388 26.9542 22.6197 27.0193 22.2973 27.0199C21.6431 27.0113 21.0179 26.7487 20.5539 26.2874L19.4259 25.2033C19.3452 25.151 19.2511 25.1231 19.1549 25.1231C19.0587 25.1231 18.9646 25.151 18.8838 25.2033C18.6641 25.2912 18.5029 25.4377 18.5029 25.6428V27.2397C18.4728 27.8758 18.1987 28.4758 17.7376 28.9151C17.2765 29.3544 16.6639 29.5991 16.0271 29.5983ZM13.727 26.6683H15.5729V25.5403C15.5792 24.8647 15.7858 24.2062 16.1665 23.6481C16.5473 23.09 17.0851 22.6574 17.7118 22.4052C18.3412 22.1301 19.0382 22.0487 19.7139 22.1713C20.3897 22.2939 21.0137 22.6151 21.5062 23.0937L22.2973 23.8848L23.5865 22.5956L22.7954 21.7899C22.3197 21.3048 21.999 20.6893 21.8738 20.0216C21.7486 19.3538 21.8246 18.6639 22.0922 18.0395C22.3467 17.4155 22.7802 16.8808 23.3382 16.5027C23.8961 16.1247 24.5534 15.9203 25.2273 15.9152H26.37V14.0254H25.2419C24.5664 14.0191 23.9078 13.8126 23.3497 13.4318C22.7916 13.0511 22.3591 12.5132 22.1068 11.8865C21.8318 11.2572 21.7503 10.5602 21.873 9.8844C21.9956 9.20862 22.3167 8.58468 22.7954 8.09214L23.5865 7.30104L22.2973 6.01184L21.4915 6.80294C20.9989 7.25293 20.3879 7.5528 19.7306 7.66722C19.0733 7.78164 18.3969 7.70586 17.7812 7.4488C17.1655 7.19173 16.636 6.76409 16.2552 6.21623C15.8743 5.66837 15.658 5.02309 15.6315 4.35639V3.22834H13.727V4.35639C13.7208 5.03197 13.5142 5.6905 13.1335 6.2486C12.7527 6.8067 12.2149 7.23925 11.5881 7.49149C10.9588 7.76657 10.2618 7.84799 9.58606 7.72536C8.91028 7.60273 8.28634 7.2816 7.7938 6.80294L7.0027 6.01184L5.7135 7.30104L6.5046 8.10679C6.95459 8.59943 7.25446 9.21039 7.36888 9.86774C7.4833 10.5251 7.40752 11.2014 7.15046 11.8172C6.89339 12.4329 6.46575 12.9623 5.91789 13.3432C5.37003 13.724 4.72475 13.9404 4.05805 13.9668H2.93V15.8127H4.05805C4.73363 15.8189 5.39216 16.0255 5.95026 16.4063C6.50836 16.787 6.94091 17.3248 7.19315 17.9516C7.46823 18.5809 7.54965 19.2779 7.42702 19.9537C7.30439 20.6295 6.98326 21.2534 6.5046 21.7459L5.7135 22.537L7.0027 23.8262L7.80845 23.0351C8.30109 22.5851 8.91206 22.2853 9.5694 22.1709C10.2267 22.0564 10.9031 22.1322 11.5188 22.3893C12.1345 22.6463 12.664 23.074 13.0448 23.6218C13.4257 24.1697 13.642 24.815 13.6684 25.4817L13.727 26.6683Z"
        fill="#FF660E" />
    <path
        d="M14.6497 20.0753C13.6356 20.0753 12.6442 19.7746 11.801 19.2112C10.9578 18.6478 10.3006 17.847 9.91253 16.91C9.52444 15.9731 9.4229 14.9421 9.62074 13.9475C9.81859 12.9529 10.3069 12.0392 11.024 11.3221C11.7411 10.605 12.6548 10.1167 13.6494 9.91884C14.644 9.72099 15.675 9.82253 16.6119 10.2106C17.5489 10.5987 18.3497 11.2559 18.9131 12.0991C19.4765 12.9423 19.7772 13.9337 19.7772 14.9478C19.7772 16.3077 19.237 17.6119 18.2754 18.5735C17.3138 19.5351 16.0096 20.0753 14.6497 20.0753ZM14.6497 12.7503C14.2151 12.7503 13.7902 12.8792 13.4289 13.1207C13.0675 13.3621 12.7858 13.7053 12.6195 14.1069C12.4532 14.5084 12.4097 14.9503 12.4944 15.3765C12.5792 15.8028 12.7885 16.1944 13.0959 16.5017C13.4032 16.809 13.7947 17.0183 14.221 17.1031C14.6473 17.1879 15.0891 17.1444 15.4907 16.978C15.8922 16.8117 16.2354 16.5301 16.4769 16.1687C16.7183 15.8073 16.8472 15.3824 16.8472 14.9478C16.8472 14.365 16.6157 13.8061 16.2036 13.3939C15.7915 12.9818 15.2325 12.7503 14.6497 12.7503Z"
        fill="#FF660E" />
</svg>
