<svg width="17" height="16" viewBox="0 0 17 16" fill="none" xmlns="http://www.w3.org/2000/svg">
    <path
        d="M8.33445 15.2666C8.22478 15.2673 8.11606 15.2446 8.01453 15.1999C7.91299 15.1552 7.82065 15.0894 7.74278 15.0061L1.26778 8.01924C0.455582 7.13481 0 5.94074 0 4.69642C0 3.4521 0.455582 2.25803 1.26778 1.37361C2.08633 0.493967 3.19514 0 4.35111 0C5.50709 0 6.6159 0.493967 7.43445 1.37361L8.33445 2.34351L9.23445 1.37361C10.053 0.493967 11.1618 0 12.3178 0C13.4738 0 14.5826 0.493967 15.4011 1.37361C16.2133 2.25803 16.6689 3.4521 16.6689 4.69642C16.6689 5.94074 16.2133 7.13481 15.4011 8.01924L8.92611 15.0061C8.84825 15.0894 8.7559 15.1552 8.65437 15.1999C8.55284 15.2446 8.44412 15.2673 8.33445 15.2666ZM4.35111 1.79569C3.99834 1.79397 3.64876 1.8677 3.32262 2.01261C2.99648 2.15751 2.70026 2.37072 2.45111 2.63987C1.94783 3.1851 1.66531 3.92288 1.66531 4.69193C1.66531 5.46099 1.94783 6.19876 2.45111 6.74399L8.33445 13.0933L14.2178 6.74399C14.7211 6.19876 15.0036 5.46099 15.0036 4.69193C15.0036 3.92288 14.7211 3.1851 14.2178 2.63987C13.7042 2.11694 13.0244 1.8256 12.3178 1.8256C11.6112 1.8256 10.9314 2.11694 10.4178 2.63987L8.92611 4.25637C8.84865 4.34055 8.75648 4.40736 8.65493 4.45295C8.55338 4.49854 8.44446 4.52202 8.33445 4.52202C8.22444 4.52202 8.11552 4.49854 8.01397 4.45295C7.91242 4.40736 7.82025 4.34055 7.74278 4.25637L6.25111 2.63987C6.00197 2.37072 5.70575 2.15751 5.37961 2.01261C5.05347 1.8677 4.70388 1.79397 4.35111 1.79569Z"
        fill="#FF660E" />
</svg>
